<svg width="244" height="117" viewBox="0 0 244 117" fill="none" xmlns="http://www.w3.org/2000/svg">
<rect width="244" height="117" fill="white"/>
<path d="M31.333 67C31.333 64.7909 33.1239 63 35.333 63H67.333C69.5421 63 71.333 64.7909 71.333 67V78C71.333 80.2091 69.5421 82 67.333 82H35.333C33.1239 82 31.333 80.2091 31.333 78V67Z" fill="#B1BBC9"/>
<path d="M32.5137 100V91.446H29.4617V90.06H37.0777V91.446H34.0257V100H32.5137ZM37.7916 100V90.06H39.2756V93.63C39.6676 92.776 40.4796 92.384 41.4596 92.384C43.0836 92.384 43.9656 93.546 43.9656 95.212V100H42.4816V95.604C42.4816 94.274 42.0196 93.63 41.0676 93.63C39.9756 93.63 39.2756 94.33 39.2756 95.632V100H37.7916ZM48.1816 100.168C46.6696 100.168 45.7316 99.118 45.7316 97.34V92.552H47.2156V96.962C47.2156 98.32 47.6776 98.922 48.6296 98.922C49.7076 98.922 50.3516 98.194 50.3516 96.92V92.552H51.8356V100H50.4496L50.4356 98.782C50.0436 99.692 49.2596 100.168 48.1816 100.168ZM53.7948 100V92.552H55.1528L55.1808 93.826C55.5448 92.916 56.3148 92.384 57.2528 92.384C58.3588 92.384 59.1288 92.958 59.4508 93.924C59.7868 92.93 60.5428 92.384 61.6068 92.384C63.1748 92.384 64.0708 93.392 64.0708 95.212V100H62.5868V95.576C62.5868 94.288 62.1248 93.63 61.1728 93.63C60.2348 93.63 59.6328 94.372 59.6328 95.632V100H58.2188V95.632C58.2188 94.372 57.8268 93.63 56.8328 93.63C55.8808 93.63 55.2788 94.386 55.2788 95.632V100H53.7948ZM69.6148 100.168C68.5788 100.168 67.7528 99.692 67.3328 98.88L67.2908 100H65.9048V90.06H67.3888V93.602C67.7668 92.958 68.5788 92.384 69.6148 92.384C71.5608 92.384 72.7788 93.896 72.7788 96.276C72.7788 98.656 71.5608 100.168 69.6148 100.168ZM69.3768 98.88C70.5108 98.88 71.2388 97.886 71.2388 96.276C71.2388 94.638 70.5248 93.672 69.3908 93.672C68.1308 93.672 67.3888 94.638 67.3888 96.276C67.3888 97.886 68.1308 98.88 69.3768 98.88Z" fill="#757575"/>
<path d="M102 67C102 64.7909 103.791 63 106 63H138C140.209 63 142 64.7909 142 67V78C142 80.2091 140.209 82 138 82H106C103.791 82 102 80.2091 102 78V67Z" fill="#B1BBC9"/>
<path d="M89.3535 100V90.06H93.0635C95.3315 90.06 96.6755 91.222 96.6755 93.154C96.6755 95.1 95.3315 96.276 93.0635 96.276H90.8655V100H89.3535ZM90.8655 94.904H93.0215C94.3935 94.904 95.1075 94.302 95.1075 93.154C95.1075 92.02 94.3935 91.446 93.0215 91.446H90.8655V94.904ZM98.1377 100V92.552H99.4957L99.5377 93.966C99.8177 92.986 100.406 92.552 101.316 92.552H102.03V93.882H101.316C100.182 93.882 99.6217 94.428 99.6217 95.604V100H98.1377ZM106.013 100.168C103.885 100.168 102.485 98.642 102.485 96.276C102.485 93.91 103.885 92.384 106.013 92.384C108.141 92.384 109.541 93.91 109.541 96.276C109.541 98.642 108.141 100.168 106.013 100.168ZM106.013 98.88C107.273 98.88 108.001 97.914 108.001 96.276C108.001 94.638 107.273 93.672 106.013 93.672C104.753 93.672 104.025 94.638 104.025 96.276C104.025 97.914 104.753 98.88 106.013 98.88ZM110.901 102.1V92.552H112.301L112.329 93.686C112.763 92.832 113.589 92.384 114.583 92.384C116.767 92.384 117.775 94.176 117.775 96.276C117.775 98.376 116.753 100.168 114.583 100.168C113.631 100.168 112.791 99.72 112.385 98.992V102.1H110.901ZM114.317 98.88C115.507 98.88 116.235 97.914 116.235 96.276C116.235 94.638 115.507 93.672 114.317 93.672C113.127 93.672 112.385 94.554 112.385 96.276C112.385 97.998 113.113 98.88 114.317 98.88ZM122.207 100.168C120.079 100.168 118.679 98.642 118.679 96.276C118.679 93.91 120.079 92.384 122.207 92.384C124.335 92.384 125.735 93.91 125.735 96.276C125.735 98.642 124.335 100.168 122.207 100.168ZM122.207 98.88C123.467 98.88 124.195 97.914 124.195 96.276C124.195 94.638 123.467 93.672 122.207 93.672C120.947 93.672 120.219 94.638 120.219 96.276C120.219 97.914 120.947 98.88 122.207 98.88ZM127.095 100V92.552H128.453L128.495 93.966C128.775 92.986 129.363 92.552 130.273 92.552H130.987V93.882H130.273C129.139 93.882 128.579 94.428 128.579 95.604V100H127.095ZM134.706 100C133.292 100 132.634 99.384 132.634 97.984V93.77H131.5V92.552H132.634V90.802H134.118V92.552H136.092V93.77H134.118V97.872C134.118 98.572 134.412 98.782 135.028 98.782H136.092V100H134.706ZM137.342 91.474V89.99H138.882V91.474H137.342ZM137.37 100V92.552H138.854V100H137.37ZM143.741 100.168C141.613 100.168 140.213 98.642 140.213 96.276C140.213 93.91 141.613 92.384 143.741 92.384C145.869 92.384 147.269 93.91 147.269 96.276C147.269 98.642 145.869 100.168 143.741 100.168ZM143.741 98.88C145.001 98.88 145.729 97.914 145.729 96.276C145.729 94.638 145.001 93.672 143.741 93.672C142.481 93.672 141.753 94.638 141.753 96.276C141.753 97.914 142.481 98.88 143.741 98.88ZM148.629 100V92.552H149.987L150.015 93.854C150.407 92.832 151.261 92.384 152.283 92.384C153.949 92.384 154.803 93.588 154.803 95.212V100H153.319V95.66C153.319 94.344 152.913 93.63 151.877 93.63C150.827 93.63 150.113 94.344 150.113 95.66V100H148.629Z" fill="#757575"/>
<rect x="172.666" y="41" width="40" height="41" rx="4" fill="#BFFF00"/>
<path d="M192.879 61V58.57H186.525V56.392L192.357 48.22H195.615V56.266H197.109V58.57H195.615V61H192.879ZM189.423 56.266H192.879V51.586L189.423 56.266Z" fill="#2E2E48"/>
<path d="M176.043 100V90.06H178.395L182.343 96.92V90.06H184.471V100H182.091L178.171 93.378V100H176.043ZM189.556 100.168C187.26 100.168 185.748 98.628 185.748 96.248C185.748 93.882 187.26 92.328 189.556 92.328C191.852 92.328 193.364 93.882 193.364 96.248C193.364 98.628 191.852 100.168 189.556 100.168ZM189.556 98.558C190.606 98.558 191.208 97.704 191.208 96.248C191.208 94.792 190.606 93.938 189.556 93.938C188.506 93.938 187.904 94.792 187.904 96.248C187.904 97.704 188.506 98.558 189.556 98.558ZM194.532 100V92.496H196.422L196.464 93.742C196.87 92.72 197.696 92.328 198.69 92.328C200.3 92.328 201.238 93.434 201.238 95.17V100H199.138V95.87C199.138 94.666 198.872 93.994 197.99 93.994C197.122 93.994 196.632 94.666 196.632 95.87V100H194.532ZM206.147 100.168C203.851 100.168 202.367 98.614 202.367 96.248C202.367 93.882 203.851 92.328 206.133 92.328C208.359 92.328 209.815 93.868 209.815 96.388V96.808H204.537C204.593 97.998 205.223 98.572 206.189 98.572C206.889 98.572 207.393 98.278 207.589 97.662L209.703 97.788C209.297 99.286 207.953 100.168 206.147 100.168ZM204.537 95.52H207.659C207.603 94.428 207.001 93.882 206.133 93.882C205.251 93.882 204.649 94.484 204.537 95.52Z" fill="#212121"/>
</svg>
