<svg width="240" height="122" viewBox="0 0 240 122" fill="none" xmlns="http://www.w3.org/2000/svg">
<rect width="240" height="122" fill="white"/>
<rect x="48" y="20" width="40" height="64" rx="4" fill="#BFFF00"/>
<path d="M68.4739 40.288C65.3419 40.288 63.6679 38.794 63.4699 36.472L66.2419 36.346C66.4399 37.444 67.2319 37.984 68.4739 37.984C69.8779 37.984 70.7239 37.156 70.7239 35.752C70.7239 34.402 69.8599 33.484 68.4559 33.484C67.4119 33.484 66.6559 34.006 66.3499 34.69H63.6139L64.4959 27.22H72.6499V29.524H66.8179L66.4579 32.476C67.0879 31.846 68.0419 31.468 69.2299 31.468C71.8759 31.468 73.5319 33.304 73.5319 35.752C73.5319 38.542 71.5339 40.288 68.4739 40.288Z" fill="#2E2E48"/>
<path d="M63.809 105V93.64H68.353C71.073 93.64 72.721 95.048 72.721 97.352C72.721 99.656 71.073 101.08 68.353 101.08H66.241V105H63.809ZM66.241 99.032H68.209C69.489 99.032 70.225 98.456 70.225 97.352C70.225 96.248 69.489 95.688 68.209 95.688H66.241V99.032Z" fill="#212121"/>
<path d="M152 69C152 66.7909 153.791 65 156 65H188C190.209 65 192 66.7909 192 69V80C192 82.2091 190.209 84 188 84H156C153.791 84 152 82.2091 152 80V69Z" fill="#B1BBC9"/>
<path d="M167.415 105V93.64H169.607L174.855 102.904V93.64H176.583V105H174.311L169.143 95.944V105H167.415Z" fill="#757575"/>
</svg>
