<svg width="244" height="117" viewBox="0 0 244 117" fill="none" xmlns="http://www.w3.org/2000/svg">
<rect width="244" height="117" fill="white"/>
<rect x="55" y="60" width="40" height="19" rx="4" fill="#B1BBC9"/>
<path d="M69.8044 100L73.9004 88.64H76.0924L80.1884 100H78.3484L77.3084 97.04H72.6684L71.6444 100H69.8044ZM73.2124 95.472H76.7804L74.9884 90.288L73.2124 95.472Z" fill="#757575"/>
<rect x="149" y="22" width="40" height="57" rx="4" fill="#BFFF00"/>
<path d="M170.38 42V39.57H164.026V37.392L169.858 29.22H173.116V37.266H174.61V39.57H173.116V42H170.38ZM166.924 37.266H170.38V32.586L166.924 37.266Z" fill="#2E2E48"/>
<path d="M164.559 100V88.64H168.975C171.791 88.64 173.327 89.6 173.327 91.728C173.327 93.104 172.479 93.984 170.975 94.128C172.815 94.272 173.807 95.296 173.807 96.864C173.807 98.976 172.271 100 169.519 100H164.559ZM166.991 93.344H168.911C170.111 93.344 170.879 92.88 170.879 91.984C170.879 91.04 170.143 90.624 168.911 90.624H166.991V93.344ZM166.991 98.016H169.407C170.575 98.016 171.359 97.552 171.359 96.576C171.359 95.616 170.575 95.104 169.407 95.104H166.991V98.016Z" fill="#212121"/>
</svg>
