<svg width="240" height="122" viewBox="0 0 240 122" fill="none" xmlns="http://www.w3.org/2000/svg">
<rect width="240" height="122" fill="white"/>
<path d="M48 54C48 51.7909 49.7909 50 52 50H84C86.2091 50 88 51.7909 88 54V80C88 82.2091 86.2091 84 84 84H52C49.7909 84 48 82.2091 48 80V54Z" fill="#B1BBC9"/>
<path d="M67.138 105V100.44L63.154 93.64H65.138L68.002 98.712L70.882 93.64H72.866L68.866 100.44V105H67.138Z" fill="#757575"/>
<path d="M152 54C152 51.7909 153.791 50 156 50H188C190.209 50 192 51.7909 192 54V80C192 82.2091 190.209 84 188 84H156C153.791 84 152 82.2091 152 80V54Z" fill="#B1BBC9"/>
<path d="M167.415 105V93.64H169.607L174.855 102.904V93.64H176.583V105H174.311L169.143 95.944V105H167.415Z" fill="#757575"/>
</svg>
