<svg width="420" height="260" viewBox="0 0 420 260" fill="none" xmlns="http://www.w3.org/2000/svg">
<rect width="420" height="260" fill="#F2F4F7"/>
<path d="M100 154C100 147.373 105.373 142 112 142H178C184.627 142 190 147.373 190 154V196C190 202.627 184.627 208 178 208H112C105.373 208 100 202.627 100 196V154Z" fill="#B1BBC9"/>
<path d="M124.002 230V218.727H128.502C130.502 218.727 131.814 219.844 131.814 221.547V221.562C131.814 222.75 130.916 223.852 129.728 224.023V224.055C131.33 224.219 132.369 225.32 132.369 226.805V226.82C132.369 228.797 130.923 230 128.525 230H124.002ZM128.08 220.156H125.752V223.531H127.689C129.236 223.531 130.072 222.906 130.072 221.773V221.758C130.072 220.727 129.345 220.156 128.08 220.156ZM128.048 224.883H125.752V228.57H128.166C129.736 228.57 130.58 227.938 130.58 226.734V226.719C130.58 225.508 129.72 224.883 128.048 224.883ZM137.021 230.164C134.607 230.164 133.146 228.516 133.146 225.922V225.914C133.146 223.344 134.631 221.625 136.935 221.625C139.24 221.625 140.654 223.281 140.654 225.75V226.32H134.834C134.865 227.875 135.717 228.781 137.06 228.781C138.06 228.781 138.724 228.266 138.935 227.648L138.959 227.586H140.56L140.545 227.672C140.279 228.977 139.013 230.164 137.021 230.164ZM136.943 223.008C135.849 223.008 135.006 223.75 134.857 225.125H138.982C138.842 223.703 138.045 223.008 136.943 223.008ZM142.299 230V223.125H141.166V221.781H142.299V220.906C142.299 219.312 143.049 218.562 144.721 218.562C145.064 218.562 145.439 218.594 145.666 218.633V219.883C145.502 219.859 145.291 219.844 145.08 219.844C144.322 219.844 143.963 220.211 143.963 220.938V221.781H145.635V223.125H143.994V230H142.299ZM149.631 230.164C147.272 230.164 145.733 228.531 145.733 225.891V225.875C145.733 223.25 147.287 221.625 149.623 221.625C151.967 221.625 153.529 223.242 153.529 225.875V225.891C153.529 228.539 151.983 230.164 149.631 230.164ZM149.639 228.75C150.959 228.75 151.803 227.703 151.803 225.891V225.875C151.803 224.078 150.943 223.039 149.623 223.039C148.326 223.039 147.459 224.078 147.459 225.875V225.891C147.459 227.711 148.318 228.75 149.639 228.75ZM154.674 230V221.781H156.362V223.188H156.401C156.666 222.227 157.354 221.625 158.291 221.625C158.533 221.625 158.744 221.664 158.877 221.688V223.258C158.744 223.203 158.448 223.164 158.119 223.164C157.033 223.164 156.362 223.875 156.362 225.102V230H154.674ZM162.928 230.164C160.514 230.164 159.053 228.516 159.053 225.922V225.914C159.053 223.344 160.537 221.625 162.842 221.625C165.147 221.625 166.561 223.281 166.561 225.75V226.32H160.741C160.772 227.875 161.623 228.781 162.967 228.781C163.967 228.781 164.631 228.266 164.842 227.648L164.866 227.586H166.467L166.452 227.672C166.186 228.977 164.92 230.164 162.928 230.164ZM162.85 223.008C161.756 223.008 160.912 223.75 160.764 225.125H164.889C164.748 223.703 163.952 223.008 162.85 223.008Z" fill="#B1BBC9"/>
<path d="M230 90C230 83.3726 235.373 78 242 78H308C314.627 78 320 83.3726 320 90V196C320 202.627 314.627 208 308 208H242C235.373 208 230 202.627 230 196V90Z" fill="#1B40C8"/>
<path d="M259.771 108V98.8906H259.724L256.849 100.844V98.75L259.763 96.7266H262.107V108H259.771ZM264.478 108V106.383L268.463 102.656C269.916 101.297 270.221 100.742 270.221 99.9609V99.9453C270.213 99.0234 269.51 98.3672 268.51 98.3672C267.353 98.3672 266.572 99.125 266.541 100.141L266.533 100.211H264.346V100.148C264.346 98.0234 266.111 96.5312 268.494 96.5312C270.877 96.5312 272.517 97.8906 272.517 99.8125V99.8281C272.517 101.195 271.869 102.086 269.924 103.875L267.564 106.031V106.125H272.674V108H264.478ZM278.397 108.195C275.537 108.195 273.803 105.953 273.803 102.367V102.352C273.803 98.7656 275.537 96.5312 278.397 96.5312C281.256 96.5312 282.99 98.7656 282.99 102.352V102.367C282.99 105.953 281.256 108.195 278.397 108.195ZM278.397 106.305C279.803 106.305 280.608 104.844 280.608 102.367V102.352C280.608 99.875 279.803 98.4219 278.397 98.4219C276.99 98.4219 276.186 99.875 276.186 102.352V102.367C276.186 104.844 276.99 106.305 278.397 106.305ZM284.424 104.414V102.422H287.666V99.4141H289.658V102.422H292.908V104.414H289.658V107.414H287.666V104.414H284.424Z" fill="white"/>
<path d="M258.39 230L262.492 218.727H264.382L268.476 230H266.64L265.609 226.953H261.265L260.226 230H258.39ZM263.422 220.594L261.734 225.547H265.132L263.453 220.594H263.422ZM269.808 230V223.125H268.676V221.781H269.808V220.906C269.808 219.312 270.558 218.562 272.23 218.562C272.574 218.562 272.949 218.594 273.176 218.633V219.883C273.012 219.859 272.801 219.844 272.59 219.844C271.832 219.844 271.472 220.211 271.472 220.938V221.781H273.144V223.125H271.504V230H269.808ZM277.195 230.164C275.57 230.164 274.789 229.477 274.789 227.836V223.125H273.609V221.781H274.789V219.641H276.516V221.781H278.055V223.125H276.516V227.734C276.516 228.57 276.891 228.82 277.602 228.82C277.781 228.82 277.93 228.805 278.055 228.789V230.094C277.859 230.125 277.539 230.164 277.195 230.164ZM282.613 230.164C280.199 230.164 278.738 228.516 278.738 225.922V225.914C278.738 223.344 280.223 221.625 282.528 221.625C284.832 221.625 286.246 223.281 286.246 225.75V226.32H280.426C280.457 227.875 281.309 228.781 282.653 228.781C283.653 228.781 284.317 228.266 284.528 227.648L284.551 227.586H286.153L286.137 227.672C285.871 228.977 284.606 230.164 282.613 230.164ZM282.535 223.008C281.442 223.008 280.598 223.75 280.449 225.125H284.574C284.434 223.703 283.637 223.008 282.535 223.008ZM287.399 230V221.781H289.086V223.188H289.125C289.391 222.227 290.078 221.625 291.016 221.625C291.258 221.625 291.469 221.664 291.602 221.688V223.258C291.469 223.203 291.172 223.164 290.844 223.164C289.758 223.164 289.086 223.875 289.086 225.102V230H287.399Z" fill="#1D232B"/>
<path d="M24.288 34.224C21.908 34.224 20.424 32.838 20.256 30.794L21.81 30.696C21.992 32.082 22.832 32.852 24.316 32.852C25.59 32.852 26.346 32.362 26.346 31.424C26.346 30.584 25.912 30.066 23.714 29.534C21.334 28.96 20.466 28.274 20.466 26.72C20.466 25.012 21.768 23.836 23.91 23.836C26.178 23.836 27.48 25.194 27.704 27.07L26.15 27.154C26.01 26.006 25.24 25.208 23.882 25.208C22.734 25.208 22.02 25.796 22.02 26.664C22.02 27.532 22.51 27.854 24.442 28.316C27.018 28.918 27.9 29.884 27.9 31.34C27.9 33.118 26.43 34.224 24.288 34.224ZM31.7655 34.168C30.2115 34.168 29.2175 33.426 29.2175 32.138C29.2175 30.864 29.9595 30.178 31.5975 29.856L34.1595 29.366C34.1595 28.218 33.6135 27.644 32.5495 27.644C31.5975 27.644 31.0655 28.078 30.8695 28.89L29.3435 28.792C29.6235 27.308 30.7855 26.384 32.5495 26.384C34.5655 26.384 35.6435 27.518 35.6435 29.45V32.348C35.6435 32.712 35.7555 32.824 36.0355 32.824H36.3015V34C36.2035 34.028 35.9795 34.042 35.7555 34.042C34.9015 34.042 34.3975 33.72 34.2855 32.852C33.9075 33.636 32.9275 34.168 31.7655 34.168ZM32.0035 32.992C33.3475 32.992 34.1595 32.152 34.1595 30.962V30.486L31.9755 30.906C31.0795 31.074 30.7575 31.424 30.7575 31.998C30.7575 32.642 31.2055 32.992 32.0035 32.992ZM39.0467 34L36.3307 26.552H37.9127L39.9427 32.488L41.9727 26.552H43.5687L40.8387 34H39.0467ZM47.4499 34.168C45.2799 34.168 43.9219 32.628 43.9219 30.276C43.9219 27.924 45.2799 26.384 47.4079 26.384C49.4379 26.384 50.8099 27.826 50.8099 30.332V30.71H45.4619C45.5319 32.166 46.2739 32.894 47.4639 32.894C48.3319 32.894 48.9199 32.46 49.1579 31.76L50.6979 31.858C50.3059 33.244 49.0879 34.168 47.4499 34.168ZM45.4619 29.59H49.2419C49.1439 28.274 48.4159 27.644 47.4079 27.644C46.3439 27.644 45.6299 28.33 45.4619 29.59ZM54.8196 34.168C52.9016 34.168 51.7116 32.67 51.7116 30.276C51.7116 27.896 52.9156 26.384 54.8196 26.384C55.8416 26.384 56.6956 26.832 57.1016 27.602V24.06H58.5856V34H57.1996L57.1576 32.88C56.7376 33.692 55.8556 34.168 54.8196 34.168ZM55.2116 32.88C56.4296 32.88 57.1016 31.914 57.1016 30.276C57.1016 28.624 56.4296 27.672 55.2116 27.672C54.0216 27.672 53.2516 28.652 53.2516 30.276C53.2516 31.872 54.0216 32.88 55.2116 32.88ZM63.8155 36.1V26.552H65.2155L65.2435 27.686C65.6775 26.832 66.5035 26.384 67.4975 26.384C69.6815 26.384 70.6895 28.176 70.6895 30.276C70.6895 32.376 69.6675 34.168 67.4975 34.168C66.5455 34.168 65.7055 33.72 65.2995 32.992V36.1H63.8155ZM67.2315 32.88C68.4215 32.88 69.1495 31.914 69.1495 30.276C69.1495 28.638 68.4215 27.672 67.2315 27.672C66.0415 27.672 65.2995 28.554 65.2995 30.276C65.2995 31.998 66.0275 32.88 67.2315 32.88ZM72.0563 34V24.06H73.5403V27.63C73.9323 26.776 74.7443 26.384 75.7243 26.384C77.3483 26.384 78.2303 27.546 78.2303 29.212V34H76.7463V29.604C76.7463 28.274 76.2843 27.63 75.3323 27.63C74.2403 27.63 73.5403 28.33 73.5403 29.632V34H72.0563ZM83.0898 34.168C80.9618 34.168 79.5618 32.642 79.5618 30.276C79.5618 27.91 80.9618 26.384 83.0898 26.384C85.2178 26.384 86.6178 27.91 86.6178 30.276C86.6178 32.642 85.2178 34.168 83.0898 34.168ZM83.0898 32.88C84.3498 32.88 85.0778 31.914 85.0778 30.276C85.0778 28.638 84.3498 27.672 83.0898 27.672C81.8298 27.672 81.1018 28.638 81.1018 30.276C81.1018 31.914 81.8298 32.88 83.0898 32.88ZM90.5601 34C89.1461 34 88.4881 33.384 88.4881 31.984V27.77H87.3541V26.552H88.4881V24.802H89.9721V26.552H91.9461V27.77H89.9721V31.872C89.9721 32.572 90.2661 32.782 90.8821 32.782H91.9461V34H90.5601ZM96.1672 34.168C94.0392 34.168 92.6392 32.642 92.6392 30.276C92.6392 27.91 94.0392 26.384 96.1672 26.384C98.2952 26.384 99.6952 27.91 99.6952 30.276C99.6952 32.642 98.2952 34.168 96.1672 34.168ZM96.1672 32.88C97.4272 32.88 98.1552 31.914 98.1552 30.276C98.1552 28.638 97.4272 27.672 96.1672 27.672C94.9072 27.672 94.1792 28.638 94.1792 30.276C94.1792 31.914 94.9072 32.88 96.1672 32.88ZM103.924 35.54L108.068 23.5H109.496L105.366 35.54H103.924ZM114.498 36.1V26.552H115.898L115.926 27.686C116.36 26.832 117.186 26.384 118.18 26.384C120.364 26.384 121.372 28.176 121.372 30.276C121.372 32.376 120.35 34.168 118.18 34.168C117.228 34.168 116.388 33.72 115.982 32.992V36.1H114.498ZM117.914 32.88C119.104 32.88 119.832 31.914 119.832 30.276C119.832 28.638 119.104 27.672 117.914 27.672C116.724 27.672 115.982 28.554 115.982 30.276C115.982 31.998 116.71 32.88 117.914 32.88ZM125.805 34.168C123.635 34.168 122.277 32.628 122.277 30.276C122.277 27.924 123.635 26.384 125.763 26.384C127.793 26.384 129.165 27.826 129.165 30.332V30.71H123.817C123.887 32.166 124.629 32.894 125.819 32.894C126.687 32.894 127.275 32.46 127.513 31.76L129.053 31.858C128.661 33.244 127.443 34.168 125.805 34.168ZM123.817 29.59H127.597C127.499 28.274 126.771 27.644 125.763 27.644C124.699 27.644 123.985 28.33 123.817 29.59ZM130.529 34V26.552H131.887L131.929 27.966C132.209 26.986 132.797 26.552 133.707 26.552H134.421V27.882H133.707C132.573 27.882 132.013 28.428 132.013 29.604V34H130.529ZM141.249 34.168C139.695 34.168 138.701 33.426 138.701 32.138C138.701 30.864 139.443 30.178 141.081 29.856L143.643 29.366C143.643 28.218 143.097 27.644 142.033 27.644C141.081 27.644 140.549 28.078 140.353 28.89L138.827 28.792C139.107 27.308 140.269 26.384 142.033 26.384C144.049 26.384 145.127 27.518 145.127 29.45V32.348C145.127 32.712 145.239 32.824 145.519 32.824H145.785V34C145.687 34.028 145.463 34.042 145.239 34.042C144.385 34.042 143.881 33.72 143.769 32.852C143.391 33.636 142.411 34.168 141.249 34.168ZM141.487 32.992C142.831 32.992 143.643 32.152 143.643 30.962V30.486L141.459 30.906C140.563 31.074 140.241 31.424 140.241 31.998C140.241 32.642 140.689 32.992 141.487 32.992ZM152.849 34.168C150.931 34.168 149.741 32.67 149.741 30.276C149.741 27.896 150.945 26.384 152.849 26.384C153.871 26.384 154.725 26.832 155.131 27.602V24.06H156.615V34H155.229L155.187 32.88C154.767 33.692 153.885 34.168 152.849 34.168ZM153.241 32.88C154.459 32.88 155.131 31.914 155.131 30.276C155.131 28.624 154.459 27.672 153.241 27.672C152.051 27.672 151.281 28.652 151.281 30.276C151.281 31.872 152.051 32.88 153.241 32.88ZM160.53 34.168C158.976 34.168 157.982 33.426 157.982 32.138C157.982 30.864 158.724 30.178 160.362 29.856L162.924 29.366C162.924 28.218 162.378 27.644 161.314 27.644C160.362 27.644 159.83 28.078 159.634 28.89L158.108 28.792C158.388 27.308 159.55 26.384 161.314 26.384C163.33 26.384 164.408 27.518 164.408 29.45V32.348C164.408 32.712 164.52 32.824 164.8 32.824H165.066V34C164.968 34.028 164.744 34.042 164.52 34.042C163.666 34.042 163.162 33.72 163.05 32.852C162.672 33.636 161.692 34.168 160.53 34.168ZM160.768 32.992C162.112 32.992 162.924 32.152 162.924 30.962V30.486L160.74 30.906C159.844 31.074 159.522 31.424 159.522 31.998C159.522 32.642 159.97 32.992 160.768 32.992ZM166.257 36.1V34.882H167.167C167.671 34.882 167.867 34.742 168.007 34.392L168.245 33.776H167.783L165.095 26.552H166.663L168.707 32.404L170.653 26.552H172.235L169.267 34.868C168.959 35.722 168.427 36.1 167.377 36.1H166.257Z" fill="#8C8C8C"/>
</svg>
