<svg width="24" height="24" viewBox="0 0 24 24" fill="none" xmlns="http://www.w3.org/2000/svg">
<path d="M22.5998 2.09988C22.4998 1.79988 22.1998 1.49988 21.8998 1.39988C17.6998 0.299882 13.3998 1.59988 10.4998 4.99988L9.3998 6.29988L6.6998 5.69988C5.3998 5.19988 3.9998 5.79988 3.3998 6.99988L1.1998 10.8999C0.999805 11.1999 0.999805 11.4999 1.1998 11.7999C1.2998 12.0999 1.5998 12.2999 1.8998 12.3999L4.9998 13.0999C4.6998 13.8999 4.5998 14.6999 4.3998 15.4999C4.3998 15.7999 4.4998 16.0999 4.6998 16.2999L7.7998 19.3999C7.9998 19.5999 8.1998 19.6999 8.4998 19.6999H8.5998C9.4998 19.5999 10.2998 19.4999 11.0998 19.1999L11.6998 22.1999C11.7998 22.4999 11.9998 22.7999 12.2998 22.8999C12.3998 22.9999 12.5998 22.9999 12.6998 22.9999C12.8998 22.9999 12.9998 22.9999 13.1998 22.8999L17.0998 20.6999C18.1998 20.0999 18.7998 18.6999 18.4998 17.3999L17.7998 14.5999L18.9998 13.4999C22.2998 10.6999 23.6998 6.19988 22.5998 2.09988ZM7.2998 8.79988C6.6998 9.59988 6.0998 10.3999 5.6998 11.1999L3.5998 10.6999L5.0998 7.99988C5.2998 7.59988 5.6998 7.49988 6.1998 7.59988L7.8998 7.99988L7.2998 8.79988ZM15.9998 18.8999L13.2998 20.3999L12.8998 18.3999C13.7998 17.9999 14.5998 17.3999 15.2998 16.7999L15.9998 16.0999L16.3998 17.7999C16.5998 18.2999 16.2998 18.7999 15.9998 18.8999ZM16.6998 8.79988C15.8998 8.79988 15.1998 8.09988 15.1998 7.29988C15.1998 6.49988 15.8998 5.79988 16.6998 5.79988C17.4998 5.79988 18.1998 6.49988 18.1998 7.29988C18.1998 8.09988 17.5998 8.79988 16.6998 8.79988Z" fill="white"/>
</svg>
