<svg width="24" height="24" viewBox="0 0 24 24" fill="none" xmlns="http://www.w3.org/2000/svg">
<g clip-path="url(#clip0_2051_18728)">
<path fill-rule="evenodd" clip-rule="evenodd" d="M5.78315 7.45453H12.7623H12.7624H12.7624C13.2416 7.45452 13.655 7.4545 13.9955 7.48232C14.3549 7.51169 14.7124 7.57652 15.0563 7.75179C15.5695 8.01326 15.9867 8.43048 16.2482 8.94365C16.4235 9.28763 16.4883 9.6451 16.5177 10.0045C16.5455 10.345 16.5455 10.7584 16.5455 11.2376V11.2376V11.2377V18.2168V18.2169V18.2169C16.5455 18.6961 16.5455 19.1095 16.5177 19.45C16.4883 19.8094 16.4235 20.1669 16.2482 20.5109C15.9867 21.024 15.5695 21.4413 15.0563 21.7027C14.7124 21.878 14.3549 21.9428 13.9955 21.9722C13.655 22 13.2416 22 12.7623 22H12.7623H12.7623H5.78316H5.78315H5.78313C5.30391 22 4.8905 22 4.54998 21.9722C4.19057 21.9428 3.8331 21.878 3.48912 21.7027C2.97595 21.4413 2.55873 21.024 2.29726 20.5109C2.12199 20.1669 2.05716 19.8094 2.02779 19.45C1.99997 19.1095 1.99999 18.6961 2 18.217V18.2169V18.2168V11.2377V11.2376V11.2376C1.99999 10.7584 1.99997 10.345 2.02779 10.0045C2.05716 9.6451 2.12199 9.28763 2.29726 8.94365C2.55873 8.43048 2.97595 8.01326 3.48912 7.75179C3.8331 7.57652 4.19057 7.51169 4.54998 7.48232C4.89047 7.4545 5.30386 7.45452 5.78304 7.45453H5.78311H5.78315ZM13.0974 13.0974C13.4524 12.7423 13.4524 12.1667 13.0974 11.8117C12.7423 11.4567 12.1667 11.4567 11.8117 11.8117L8.36364 15.2598L7.18828 14.0844C6.83326 13.7294 6.25765 13.7294 5.90263 14.0844C5.54761 14.4395 5.54761 15.0151 5.90263 15.3701L7.72081 17.1883C8.07584 17.5433 8.65144 17.5433 9.00646 17.1883L13.0974 13.0974Z" fill="#C8C8C8"/>
<path fill-rule="evenodd" clip-rule="evenodd" d="M18.2169 2H11.2377H11.2377C10.7585 1.99999 10.3451 1.99997 10.0046 2.02779C9.64516 2.05716 9.28769 2.12199 8.94371 2.29726C8.43054 2.55873 8.01332 2.97595 7.75185 3.48912C7.74864 3.4954 7.74609 3.50017 7.7442 3.5036L7.73222 3.5177C7.72077 3.53131 7.69853 3.55809 7.674 3.5922C7.61581 3.67312 7.56248 3.77015 7.52421 3.88745C7.46592 4.06607 7.46088 4.2487 7.45813 4.3481L7.45804 4.35164C7.45459 4.47614 7.45459 4.65233 7.45459 4.8906V4.89066V4.90909C7.45459 5.41117 7.8616 5.81818 8.36368 5.81818H13.2728C14.306 5.81818 15.0263 5.81889 15.5871 5.86471C16.1373 5.90966 16.4533 5.99345 16.6927 6.11544C17.2059 6.37691 17.6231 6.79413 17.8846 7.3073C18.0066 7.54671 18.0904 7.86279 18.1353 8.41295C18.1812 8.97371 18.1819 9.694 18.1819 10.7273V15.6364C18.1819 16.1384 18.5889 16.5455 19.091 16.5455H19.1095C19.3477 16.5455 19.5239 16.5455 19.6484 16.542L19.6519 16.5419C19.7513 16.5392 19.934 16.5341 20.1126 16.4758C20.2299 16.4376 20.3269 16.3842 20.4078 16.326C20.442 16.3015 20.4687 16.2793 20.4823 16.2678L20.4964 16.2559C20.4999 16.254 20.5046 16.2514 20.5109 16.2482C21.0241 15.9867 21.4413 15.5695 21.7028 15.0563C21.8781 14.7124 21.9429 14.3549 21.9723 13.9955C22.0001 13.655 22.0001 13.2416 22 12.7624V12.7623V5.78316V5.7831C22.0001 5.30389 22.0001 4.89049 21.9723 4.54998C21.9429 4.19057 21.8781 3.8331 21.7028 3.48912C21.4413 2.97595 21.0241 2.55873 20.5109 2.29726C20.1669 2.12199 19.8095 2.05716 19.4501 2.02779C19.1096 1.99997 18.6962 1.99999 18.2169 2H18.2169Z" fill="#C8C8C8"/>
</g>
<defs>
<clipPath id="clip0_2051_18728">
<rect width="24" height="24" fill="white"/>
</clipPath>
</defs>
</svg>
