<svg width="183" height="160" viewBox="0 0 183 160" fill="none" xmlns="http://www.w3.org/2000/svg">
<path d="M158.532 159.249H140.006V152.656H146.348V134.548H140.84V127.955H152.44V128.706C152.551 130.041 152.635 131.265 152.69 132.378C152.801 133.435 152.913 134.631 153.024 135.966C154.137 133.296 155.917 131.182 158.365 129.624C160.868 128.011 163.622 127.204 166.626 127.204C169.909 127.204 172.495 128.066 174.387 129.791C176.278 131.516 177.28 133.769 177.391 136.55V152.656H182.565V159.249H164.039V152.656H170.465V139.721C170.354 138.219 169.797 136.94 168.796 135.883C167.85 134.77 166.32 134.158 164.206 134.047C162.76 134.047 161.369 134.297 160.034 134.798C158.754 135.299 157.614 135.994 156.612 136.884C155.611 137.774 154.804 138.831 154.192 140.055C153.58 141.279 153.274 142.614 153.274 144.061V152.656H158.532V159.249Z" fill="#333333"/>
<path d="M134.165 159.249H115.639V152.656H121.481V134.548H115.639V127.955H128.407V152.656H134.165V159.249Z" fill="#FF7832"/>
<path d="M126.732 119.026C127.622 118.192 128.067 117.135 128.067 115.855C128.067 114.576 127.622 113.519 126.732 112.684C125.842 111.85 124.868 111.433 123.811 111.433C122.698 111.433 121.697 111.85 120.807 112.684C119.917 113.519 119.472 114.576 119.472 115.855C119.472 117.135 119.917 118.192 120.807 119.026C121.697 119.805 122.698 120.195 123.811 120.195C124.868 120.195 125.842 119.805 126.732 119.026Z" fill="#FF7832"/>
<path d="M109.808 159.249H97.3743V157.58C97.3743 157.19 97.3743 156.912 97.3743 156.745C97.3743 156.578 97.3743 156.3 97.3743 155.911C97.3187 156.078 97.0405 156.384 96.5398 156.829C96.0391 157.274 95.3437 157.719 94.4536 158.164C93.5078 158.664 92.3951 159.082 91.1156 159.416C89.836 159.805 88.3896 160 86.7762 160C84.4397 160 82.2422 159.582 80.1837 158.748C78.1253 157.858 76.3451 156.662 74.843 155.16C73.3409 153.658 72.1448 151.933 71.2547 149.986C70.4202 147.983 70.0029 145.869 70.0029 143.644C70.0029 141.474 70.4202 139.388 71.2547 137.385C72.1448 135.382 73.3409 133.63 74.843 132.128C76.3451 130.626 78.1253 129.429 80.1837 128.539C82.2422 127.649 84.4397 127.204 86.7762 127.204C89.836 127.204 92.2561 127.76 94.0363 128.873C95.8166 129.93 96.9292 130.932 97.3743 131.877C97.4299 131.321 97.4856 130.709 97.5412 130.041C97.6525 129.318 97.7081 128.623 97.7081 127.955H103.466V152.656H109.808V159.249ZM86.7762 133.963C85.2742 133.963 83.8833 134.242 82.6038 134.798C81.3242 135.299 80.2672 136.022 79.4327 136.968C78.6538 137.802 78.0419 138.776 77.5968 139.888C77.2074 141.001 77.0127 142.225 77.0127 143.56C77.0127 145.118 77.3186 146.564 77.9306 147.9C78.5982 149.235 79.4883 150.347 80.601 151.237C81.3798 151.849 82.2978 152.35 83.3548 152.74C84.4118 153.073 85.5523 153.24 86.7762 153.24C88.1671 153.24 89.4188 153.018 90.5315 152.573C91.6997 152.128 92.7011 151.516 93.5356 150.737C94.4814 149.847 95.2046 148.79 95.7053 147.566C96.2616 146.342 96.5398 145.007 96.5398 143.56C96.5398 142.114 96.2616 140.779 95.7053 139.555C95.2046 138.331 94.5092 137.301 93.6191 136.467C92.7289 135.688 91.6997 135.076 90.5315 134.631C89.4188 134.186 88.1671 133.963 86.7762 133.963Z" fill="#FF7832"/>
<path d="M64.1625 159.249H45.6367V152.657H51.9789V103.255H45.6367V96.6621H58.9052V152.657H64.1625V159.249Z" fill="#333333"/>
<path d="M39.8053 159.249H27.3714V157.58C27.3714 157.19 27.3714 156.912 27.3714 156.745C27.3714 156.578 27.3714 156.3 27.3714 155.911C27.3157 156.078 27.0376 156.384 26.5369 156.829C26.0362 157.274 25.3408 157.719 24.4506 158.164C23.5049 158.664 22.3922 159.082 21.1127 159.416C19.8331 159.805 18.3867 160 16.7733 160C14.4367 160 12.2392 159.582 10.1808 158.748C8.12239 157.858 6.34214 156.662 4.84006 155.16C3.33797 153.658 2.14186 151.933 1.25174 149.986C0.417246 147.983 0 145.869 0 143.644C0 141.474 0.417246 139.388 1.25174 137.385C2.14186 135.382 3.33797 133.63 4.84006 132.128C6.34214 130.626 8.12239 129.429 10.1808 128.539C12.2392 127.649 14.4367 127.204 16.7733 127.204C19.8331 127.204 22.2531 127.76 24.0334 128.873C25.8136 129.93 26.9263 130.932 27.3714 131.877C27.427 131.321 27.4826 130.709 27.5383 130.041C27.6495 129.318 27.7052 128.623 27.7052 127.955H33.4632V152.656H39.8053V159.249ZM16.7733 133.963C15.2712 133.963 13.8804 134.242 12.6008 134.798C11.3213 135.299 10.2643 136.022 9.42977 136.968C8.65091 137.802 8.03895 138.776 7.59388 139.888C7.20445 141.001 7.00974 142.225 7.00974 143.56C7.00974 145.118 7.31572 146.564 7.92768 147.9C8.59527 149.235 9.4854 150.347 10.5981 151.237C11.3769 151.849 12.2949 152.35 13.3519 152.74C14.4089 153.073 15.5494 153.24 16.7733 153.24C18.1641 153.24 19.4159 153.018 20.5285 152.573C21.6968 152.128 22.6982 151.516 23.5327 150.737C24.4785 149.847 25.2017 148.79 25.7024 147.566C26.2587 146.342 26.5369 145.007 26.5369 143.56C26.5369 142.114 26.2587 140.779 25.7024 139.555C25.2017 138.331 24.5063 137.301 23.6161 136.467C22.726 135.688 21.6968 135.076 20.5285 134.631C19.4159 134.186 18.1641 133.963 16.7733 133.963Z" fill="#333333"/>
<path d="M91.4609 18.7764C130.958 18.7764 163.216 49.8195 165.238 88.8738H182.059V96.6623H157.562V92.7681C157.562 56.2051 127.968 26.565 91.4609 26.565C54.9541 26.565 25.3595 56.2051 25.3595 92.7681V96.6623H1.25195V88.8738H17.6839C19.7059 49.8195 51.9635 18.7764 91.4609 18.7764Z" fill="#333333"/>
<path d="M110.431 0V7.64952H72.8789V0H110.431Z" fill="#333333"/>
</svg>
